<svg width="1180" height="610" viewBox="0 0 1180 610"
xmlns="http://www.w3.org/2000/svg">

<defs>

<linearGradient id="bg" x1="0" y1="0" x2="1" y2="1">

<stop offset="0%" stop-color="#F8FAFC"/>
<stop offset="55%" stop-color="#EEF2F7"/>
<stop offset="100%" stop-color="#FFFFFF"/>

</linearGradient>

<pattern
id="grid"
width="42"
height="42"
patternUnits="userSpaceOnUse">

<path
d="M42 0H0V42"
fill="none"
stroke="#94A3B8"
stroke-opacity=".16"/>

</pattern>

<filter id="blur">

<feGaussianBlur stdDeviation="12"/>

</filter>

</defs>


<!-- BACKGROUND -->

<rect
width="1180"
height="610"
rx="28"
fill="url(#bg)"/>

<rect
x="1"
y="1"
width="1178"
height="608"
rx="28"
fill="none"
stroke="#CBD5E1"/>

<rect
x="30"
y="30"
width="1120"
height="550"
rx="20"
fill="url(#grid)"/>


<!-- ATMOSPHERE -->

<circle
cx="260"
cy="290"
r="150"
fill="#2563EB"
opacity=".05"
filter="url(#blur)">

<animate
attributeName="opacity"
values=".02;.07;.02"
dur="5s"
repeatCount="indefinite"/>

</circle>


<!-- LEFT PANEL -->

<rect
x="70"
y="80"
width="420"
height="450"
rx="18"
fill="#FFFFFF"
stroke="#CBD5E1"/>


<!-- MZ -->

<g fill="#0F172A">

<circle cx="135" cy="170" r="5"/>
<circle cx="135" cy="200" r="5"/>
<circle cx="135" cy="230" r="5"/>
<circle cx="135" cy="260" r="5"/>
<circle cx="135" cy="290" r="5"/>

<circle cx="165" cy="200" r="5"/>
<circle cx="195" cy="230" r="5"/>
<circle cx="225" cy="200" r="5"/>

<circle cx="255" cy="170" r="5"/>
<circle cx="255" cy="200" r="5"/>
<circle cx="255" cy="230" r="5"/>
<circle cx="255" cy="260" r="5"/>
<circle cx="255" cy="290" r="5"/>


<circle cx="300" cy="170" r="5"/>
<circle cx="330" cy="170" r="5"/>
<circle cx="360" cy="170" r="5"/>
<circle cx="390" cy="170" r="5"/>

<circle cx="360" cy="200" r="5"/>
<circle cx="330" cy="230" r="5"/>
<circle cx="300" cy="260" r="5"/>

<circle cx="300" cy="290" r="5"/>
<circle cx="330" cy="290" r="5"/>
<circle cx="360" cy="290" r="5"/>
<circle cx="390" cy="290" r="5"/>

</g>


<!-- BLUE DOT -->

<circle
cx="430"
cy="170"
r="5"
fill="#2563EB">

<animate
attributeName="r"
values="4;7;4"
dur="2s"
repeatCount="indefinite"/>

</circle>


<!-- NAME -->

<text
x="110"
y="370"
fill="#0F172A"
font-family="monospace"
font-size="25"
letter-spacing="5">

MANAL ZAREEN

</text>


<text
x="110"
y="405"
fill="#64748B"
font-family="monospace"
font-size="14"
letter-spacing="2">

CSE (AI &amp; ML) · DEVELOPER

</text>


<line
x1="110"
y1="435"
x2="450"
y2="435"
stroke="#CBD5E1"/>


<text
x="110"
y="470"
fill="#2563EB"
font-family="monospace"
font-size="14">

somewhere between code

</text>


<text
x="110"
y="494"
fill="#475569"
font-family="monospace"
font-size="14">

&amp; curiosity.

</text>


<!-- RIGHT PANEL -->

<rect
x="545"
y="80"
width="565"
height="450"
rx="18"
fill="#FFFFFF"
stroke="#CBD5E1"/>


<!-- HEADER -->

<circle cx="580" cy="115" r="5" fill="#94A3B8"/>
<circle cx="600" cy="115" r="5" fill="#94A3B8"/>
<circle cx="620" cy="115" r="5" fill="#94A3B8"/>


<text
x="660"
y="120"
fill="#64748B"
font-family="monospace"
font-size="12">

MANAL / SYSTEM.INFO

</text>


<line
x1="575"
y1="145"
x2="1080"
y2="145"
stroke="#CBD5E1"/>


<!-- WHOAMI -->

<text
x="585"
y="185"
fill="#64748B"
font-family="monospace"
font-size="13">

$ whoami

</text>


<text
x="585"
y="215"
fill="#0F172A"
font-family="monospace"
font-size="16">

manal_zareen

</text>


<!-- ROLE -->

<text
x="585"
y="260"
fill="#64748B"
font-family="monospace"
font-size="13">

$ role

</text>


<text
x="585"
y="290"
fill="#334155"
font-family="monospace"
font-size="15">

CSE (AI &amp; ML) · Developer

</text>


<!-- FOCUS -->

<text
x="585"
y="335"
fill="#64748B"
font-family="monospace"
font-size="13">

$ focus

</text>


<text
x="585"
y="365"
fill="#334155"
font-family="monospace"
font-size="15">

Web · Python · AI experiments

</text>


<!-- STATUS -->

<text
x="585"
y="410"
fill="#64748B"
font-family="monospace"
font-size="13">

$ status

</text>


<text
x="585"
y="440"
fill="#2563EB"
font-family="monospace"
font-size="15">

BUILDING

</text>


<rect
x="585"
y="465"
width="495"
height="1"
fill="#CBD5E1"/>


<text
x="585"
y="500"
fill="#64748B"
font-family="monospace"
font-size="12">

Python · JavaScript · React · Git

</text>


<!-- CURSOR -->

<rect
x="585"
y="515"
width="9"
height="16"
fill="#2563EB">

<animate
attributeName="opacity"
values="1;0;1"
dur="1.1s"
repeatCount="indefinite"/>

</rect>


<!-- SCAN -->

<rect
x="45"
y="80"
width="2"
height="450"
fill="#2563EB"
opacity=".35">

<animate
attributeName="x"
values="45;1135;45"
dur="8s"
repeatCount="indefinite"/>

</rect>

</svg>
